# xmcd CD database file
#
# Track frame offsets:
#	150
#	22927
#	47075
#	64432
#	82830
#	103982
#	118162
#	139797
#	174145
#	195182
#
# Disc length: 2728 seconds
#
# Revision: 0
# Processed by: cddbd v1.5.1PL2 Copyright (c) Steve Scherf et al.
# Submitted via: CDex 1.51
#
DISCID=7d0aa60a
DTITLE=Nene Santos - Dreams
DYEAR=2006
DGENRE=Jazz
TTITLE0=Portal
TTITLE1=Groove in the night
TTITLE2=Suplica
TTITLE3=Alma abatida
TTITLE4=Awesome God
TTITLE5=Escape
TTITLE6=Dreams
TTITLE7=Calvary
TTITLE8=Amazing Grace
TTITLE9=O Comeco
EXTD=YEAR: 2006
EXTT0=
EXTT1=
EXTT2=
EXTT3=
EXTT4=
EXTT5=
EXTT6=
EXTT7=
EXTT8=
EXTT9=
PLAYORDER=
